<svg xmlns="http://www.w3.org/2000/svg" version="1.1" xmlns:xlink="http://www.w3.org/1999/xlink" width="512" height="512" x="0" y="0" viewBox="0 0 511.664 511.664" style="enable-background:new 0 0 512 512" xml:space="preserve" class=""><g><path d="M508.55 98.95a15.003 15.003 0 0 0-11.886-5.85H144.099l-16.315-56.543a15 15 0 0 0-14.412-10.842H15c-8.284 0-15 6.716-15 15s6.716 15 15 15h87.088l68.348 253.919a74.453 74.453 0 0 1 26.847-4.998h255.458c2.475 0 4.901.209 7.268.595l51.156-193.295a14.997 14.997 0 0 0-2.615-12.986zM433.072 394.516H197.284c-8.192 0-14.857-6.665-14.857-14.857s6.665-14.857 14.857-14.857h255.458c8.284 0 15-6.716 15-15s-6.716-15-15-15H197.284c-24.734 0-44.857 20.123-44.857 44.857 0 11.133 4.086 21.324 10.825 29.174-7.763 8.197-12.539 19.249-12.539 31.402 0 25.207 20.507 45.714 45.714 45.714 25.206 0 45.714-20.507 45.714-45.714a45.5 45.5 0 0 0-2.785-15.719h150.786a45.499 45.499 0 0 0-2.783 15.714c0 25.206 20.507 45.714 45.714 45.714s45.714-20.507 45.714-45.714c-.001-25.207-20.508-45.714-45.715-45.714z" fill="#ff8a3d" opacity="1" data-original="#000000" class=""></path></g></svg>