<svg id="Capa_1" enable-background="new 0 0 512 512" height="512" viewBox="0 0 512 512" width="512" xmlns="http://www.w3.org/2000/svg"><path d="m477 224.126h-48.913l-128.731-127.886c1.064-3.81 1.644-7.819 1.644-11.962 0-24.69-20.187-44.778-45-44.778s-45 20.088-45 44.778c0 4.143.58 8.151 1.644 11.962l-128.731 127.886h-48.913c-19.299 0-35 15.701-35 35v178.374c0 19.299 15.701 35 35 35h442c19.299 0 35-15.701 35-35v-178.374c0-19.299-15.701-35-35-35zm5 213.374c0 2.757-2.243 5-5 5h-442c-2.757 0-5-2.243-5-5v-178.374c0-2.757 2.243-5 5-5h442c2.757 0 5 2.243 5 5zm-226-338.443c-8.271 0-15-6.63-15-14.778s6.729-14.779 15-14.779 15 6.63 15 14.778-6.729 14.779-15 14.779zm-25.712 21.939c7.294 5.073 16.157 8.061 25.712 8.061s18.417-2.988 25.712-8.061l103.898 103.13h-259.22z"/><path d="m164.168 371.257c-4.44.025-9.117.043-13.055.051v-55.995c0-5.522-4.477-10-10-10s-10 4.478-10 10v65.944c0 4.871 3.509 9.033 8.31 9.856.718.123 17.309.186 24.856.144 5.523-.031 9.975-4.533 9.944-10.056s-4.56-9.937-10.055-9.944z"/><path d="m117.728 364.334c-4.232-3.549-10.539-2.995-14.088 1.238-.521.621-1.081 1.2-1.666 1.721-2.995 2.667-6.851 4.02-11.461 4.02-12.682 0-23-10.317-23-23s10.318-23 23-23c4.609 0 9.054 1.356 12.854 3.923 4.576 3.091 10.793 1.887 13.884-2.689 3.091-4.577 1.887-10.793-2.689-13.885-7.118-4.808-15.434-7.349-24.048-7.349-23.71 0-43 19.29-43 43s19.29 43 43 43c9.526 0 18.089-3.141 24.763-9.084 1.307-1.165 2.548-2.445 3.69-3.807 3.547-4.233 2.993-10.539-1.239-14.088z"/><path d="m217.63 305.313c-23.71 0-43 19.29-43 43s19.29 43 43 43 43-19.29 43-43-19.289-43-43-43zm0 66c-12.682 0-23-10.317-23-23s10.318-23 23-23 23 10.317 23 23-10.318 23-23 23z"/><path d="m380.844 325.344c5.523 0 10-4.478 10-10s-4.477-10-10-10h-27.556c-5.523 0-10 4.478-10 10v65.397c0 5.522 4.477 10 10 10h27.556c5.523 0 10-4.478 10-10s-4.477-10-10-10h-17.556v-12.698h15.524c5.523 0 10-4.478 10-10s-4.477-10-10-10h-15.524v-12.699z"/><path d="m428.623 306.019h-18.14c-2.655 0-5.202 1.056-7.078 2.936s-2.927 4.428-2.922 7.083v.046.001 62.94c0 .608.063 1.201.167 1.78.178 2.395 1.203 4.656 2.918 6.358 1.874 1.86 4.406 2.903 7.045 2.903h.038c.548-.002 13.497-.052 18.677-.144 20.372-.355 35.159-17.969 35.159-41.881 0-25.135-14.413-42.022-35.864-42.022zm.355 63.908c-1.972.034-5.196.063-8.398.086-.023-7.394-.05-17.009-.05-22.041 0-4.226-.016-14.247-.029-21.953h8.122c14.72 0 15.864 16.857 15.864 22.023 0 10.758-4.796 21.697-15.509 21.885z"/><path d="m310.017 339.448c-7.775-2.868-15.012-5.968-17.836-7.2-.988-.897-.987-2.087-.896-2.723.125-.87.781-3.003 4.167-4.023 8.547-2.574 16.511 3.672 16.838 3.934 4.19 3.478 10.451 2.915 13.957-1.254 1.706-2.028 2.519-4.604 2.29-7.253-.229-2.647-1.473-5.046-3.501-6.751-.655-.551-16.26-13.446-35.316-7.712-9.805 2.955-16.745 10.708-18.112 20.233-1.29 8.979 2.604 17.616 10.163 22.543.446.29.916.545 1.397.759.984.438 9.91 4.387 19.972 8.099 1.411.521 8.412 3.316 7.706 7.274-.537 3.004-4.532 6.246-10.051 6.246-6.173 0-12.099-2.471-15.851-6.61-3.681-4.06-9.979-4.372-14.041-.69-4.061 3.681-4.37 9.979-.69 14.041 7.458 8.228 18.89 13.14 30.582 13.14 14.822 0 27.28-9.519 29.622-22.632 1.771-9.932-2.656-22.877-20.4-29.421z"/></svg>