<?xml version="1.0" encoding="iso-8859-1"?>
<!-- Generator: Adobe Illustrator 28.2.0, SVG Export Plug-In . SVG Version: 6.00 Build 0)  -->
<svg version="1.1" id="Capa_1" xmlns="http://www.w3.org/2000/svg" xmlns:xlink="http://www.w3.org/1999/xlink" x="0px" y="0px"
	 viewBox="0 0 512 512" style="enable-background:new 0 0 512 512;" xml:space="preserve">
<g>
	<path d="M501,87.904H90.707l-9.279-31.063c-1.392-4.659-5.678-7.852-10.54-7.852H11c-6.075,0-11,4.925-11,11s4.925,11,11,11h51.693
		l77.062,258.726v38.712c0,15.838,12.886,28.724,28.725,28.724h27.153c-3.738,6.459-5.89,13.946-5.89,21.93
		c0,24.223,19.707,43.93,43.93,43.93s43.93-19.707,43.93-43.93c0-7.984-2.152-15.471-5.89-21.93h91.236
		c-3.738,6.459-5.89,13.946-5.89,21.93c0,24.223,19.707,43.93,43.93,43.93s43.93-19.707,43.93-43.93
		c0-7.984-2.152-15.471-5.89-21.93h12.597c6.075,0,11-4.925,11-11s-4.925-11-11-11H168.48c-3.708,0-6.725-3.017-6.725-6.724v-30.003
		h235.077c18.048,0,33.69-12.234,38.04-29.75l49.355-198.77H501c6.075,0,11-4.925,11-11S507.075,87.904,501,87.904z
		 M255.604,419.081c0,12.092-9.838,21.93-21.93,21.93s-21.93-9.837-21.93-21.93s9.838-21.93,21.93-21.93
		S255.604,406.989,255.604,419.081z M422.92,419.081c0,12.092-9.838,21.93-21.93,21.93s-21.93-9.837-21.93-21.93
		s9.838-21.93,21.93-21.93S422.92,406.989,422.92,419.081z M413.521,303.372c-1.908,7.685-8.771,13.052-16.688,13.052h-237.86
		L97.279,109.904h364.28L413.521,303.372z"/>
	<g>
		<path style="fill:#33CCCC;" d="M290.004,163.1c-6.075,0-11,4.925-11,11v78.129c0,6.075,4.925,11,11,11s11-4.925,11-11V174.1
			C301.004,168.024,296.079,163.1,290.004,163.1z"/>
		<path style="fill:#33CCCC;" d="M207.33,163.1c-6.075,0-11,4.925-11,11v78.129c0,6.075,4.925,11,11,11s11-4.925,11-11V174.1
			C218.33,168.024,213.405,163.1,207.33,163.1z"/>
		<path style="fill:#33CCCC;" d="M372.679,163.1c-6.075,0-11,4.925-11,11v78.129c0,6.075,4.925,11,11,11s11-4.925,11-11V174.1
			C383.679,168.024,378.754,163.1,372.679,163.1z"/>
	</g>
</g>
<g>
</g>
<g>
</g>
<g>
</g>
<g>
</g>
<g>
</g>
<g>
</g>
<g>
</g>
<g>
</g>
<g>
</g>
<g>
</g>
<g>
</g>
<g>
</g>
<g>
</g>
<g>
</g>
<g>
</g>
</svg>
