<svg xmlns="http://www.w3.org/2000/svg" version="1.1" xmlns:xlink="http://www.w3.org/1999/xlink" width="512" height="512" x="0" y="0" viewBox="0 0 48 48" style="enable-background:new 0 0 512 512" xml:space="preserve" class=""><g><path d="M35.06 2.94c-.28-.28-.66-.44-1.06-.44H10c-.83 0-1.5.67-1.5 1.5v40c0 .83.67 1.5 1.5 1.5h28c.83 0 1.5-.67 1.5-1.5V8c0-.4-.16-.78-.44-1.06zM36.5 42.5h-25v-37h21.88l3.12 3.12z" fill="#ff8a3d" opacity="1" data-original="#000000" class=""></path><path d="M17 18.5h14c.83 0 1.5-.67 1.5-1.5 0-.71-.49-1.29-1.14-1.45-.58-2.96-2.91-5.29-5.86-5.9V9c0-.83-.67-1.5-1.5-1.5s-1.5.67-1.5 1.5v.65c-2.95.6-5.27 2.94-5.86 5.9-.66.16-1.14.75-1.14 1.45 0 .83.67 1.5 1.5 1.5zm7-6c1.96 0 3.62 1.25 4.24 3h-8.49c.63-1.75 2.29-3 4.25-3zM12.5 23c0 .83.67 1.5 1.5 1.5h20c.83 0 1.5-.67 1.5-1.5s-.67-1.5-1.5-1.5H14c-.83 0-1.5.67-1.5 1.5zM34 25.5H14c-.83 0-1.5.67-1.5 1.5s.67 1.5 1.5 1.5h20c.83 0 1.5-.67 1.5-1.5s-.67-1.5-1.5-1.5zM34 29.5H14c-.83 0-1.5.67-1.5 1.5s.67 1.5 1.5 1.5h20c.83 0 1.5-.67 1.5-1.5s-.67-1.5-1.5-1.5zM34 33.5H14c-.83 0-1.5.67-1.5 1.5s.67 1.5 1.5 1.5h20c.83 0 1.5-.67 1.5-1.5s-.67-1.5-1.5-1.5zM34 37.5H14c-.83 0-1.5.67-1.5 1.5s.67 1.5 1.5 1.5h20c.83 0 1.5-.67 1.5-1.5s-.67-1.5-1.5-1.5z" fill="#ff8a3d" opacity="1" data-original="#000000" class=""></path></g></svg>