<svg xmlns="http://www.w3.org/2000/svg" version="1.1" xmlns:xlink="http://www.w3.org/1999/xlink" width="512" height="512" x="0" y="0" viewBox="0 0 512 512" style="enable-background:new 0 0 512 512" xml:space="preserve" class=""><g><path fill="#c85a0f" d="m61.18 40.291 13.036-13.235a63.888 63.888 0 0 1 47.076-19.037l227.138 5.54a49.319 49.319 0 0 1 42.647 26.732z" opacity="1" data-original="#71aa52" class=""></path><path fill="#a04808" d="M377.769 24.145H77.305a64.154 64.154 0 0 0-3.089 2.911L61.18 40.291h329.897a49.274 49.274 0 0 0-13.308-16.146z" opacity="1" data-original="#68994b" class=""></path><path fill="#1f9fe7" d="m478.07 40.186-5.309-13.02c-3.188-7.818-12.109-11.571-19.927-8.384l-52.756 21.51H48.082c-8.443 0-15.287 6.844-15.287 15.287V69.64c0 8.443 6.844 15.287 15.287 15.287l348.128-.004a64.367 64.367 0 0 0 24.298-4.762l49.177-20.047c7.818-3.189 11.572-12.111 8.385-19.928z" opacity="1" data-original="#aee295" class=""></path><path fill="#1f9fe7" d="M476.575 36.521a15.213 15.213 0 0 1-6.89 5.592L420.508 62.16a64.367 64.367 0 0 1-24.298 4.762l-348.128.003c-7.774 0-14.177-5.807-15.146-13.317a15.416 15.416 0 0 0-.141 1.97v14.061c0 8.443 6.844 15.287 15.287 15.287l348.128-.004a64.367 64.367 0 0 0 24.298-4.762l49.177-20.047c7.818-3.187 11.572-12.109 8.384-19.927z" opacity="1" data-original="#98db7c" class=""></path><path fill="#c85a0f" d="M336.112 504H115.543c-10.384 0-19.041-7.945-19.929-18.291L61.18 84.925h329.294L356.04 485.709c-.888 10.346-9.545 18.291-19.928 18.291z" opacity="1" data-original="#71aa52" class=""></path><path fill="#a04808" d="m388.928 102.925 1.546-18H61.18l1.547 18z" opacity="1" data-original="#68994b" class=""></path><path fill="#ff8a3d" d="m330.373 298.589-38.627-65.48-31.499 18.559 27.643 46.862z" opacity="1" data-original="#ffcb9d" class=""></path><path fill="#ff8a3d" d="m287.89 298.53 42.483.059-10.638-18.034-42.474-.044z" opacity="1" data-original="#ffba7e" class=""></path><path fill="#ff8a3d" d="m142.142 334.988 76.024-.026.006-36.56-54.407.017zM204.234 155.562l-37.749 65.99 31.725 18.169 27.017-47.226z" opacity="1" data-original="#ffcb9d" class=""></path><path fill="#ffe9c8" d="m263.234 298.496.013-9.377-24.695 27.609 24.619 27.707.012-9.377 46.291.063 20.899-36.532zM176.314 277.196l8.072 4.773-11.245-35.294-36.37 7.139 8.072 4.773-23.561 39.846 20.86 36.555z" opacity="1" data-original="#ffe9c8" class=""></path><path fill="#ff8a3d" d="m181.768 298.414-18.003.005-21.623 36.569 18.003-.006z" opacity="1" data-original="#ffba7e" class=""></path><path fill="#ffe9c8" d="m237.411 213.931-8.153 4.634 36.216 7.776 11.875-35.11-8.153 4.634-22.874-40.245-42.088-.058z" opacity="1" data-original="#ffe9c8" class=""></path><path fill="#ff8a3d" d="m195.205 171.345 20.993 36.934 9.029-15.784-20.978-36.908h-.029z" opacity="1" data-original="#ffba7e" class=""></path><circle cx="110.968" cy="443.902" r="60.098" fill="#8c808a" transform="rotate(-5.57 111.493 445.659)" opacity="1" data-original="#8c808a" class=""></circle><path fill="#7b7179" d="M110.967 486c-30.132 0-55.081-22.177-59.425-51.098a60.558 60.558 0 0 0-.673 9c0 33.191 26.907 60.098 60.098 60.098 33.192 0 60.098-26.907 60.098-60.098 0-3.059-.232-6.064-.673-9C166.049 463.823 141.1 486 110.967 486z" opacity="1" data-original="#7b7179" class=""></path><circle cx="110.968" cy="443.902" r="23.811" fill="#ff8a3d" opacity="1" data-original="#ffc265" class=""></circle><path fill="#ff8a3d" d="M110.967 449.713c-9.965 0-18.495-6.124-22.046-14.811a23.73 23.73 0 0 0-1.765 9c0 13.151 10.661 23.811 23.811 23.811 13.151 0 23.812-10.661 23.812-23.811 0-3.186-.63-6.223-1.765-9-3.551 8.687-12.081 14.811-22.047 14.811z" opacity="1" data-original="#ffb541" class=""></path><path d="M79.313 444.269c0 17.299 14.073 31.372 31.372 31.372s31.373-14.073 31.373-31.372-14.074-31.373-31.373-31.373c-17.299.001-31.372 14.075-31.372 31.373zm47.716 0c0 9.012-7.332 16.343-16.343 16.343-9.012 0-16.343-7.331-16.343-16.343s7.331-16.343 16.343-16.343c9.011 0 16.343 7.332 16.343 16.343z" fill="#000000" opacity="1" data-original="#000000" class=""></path><path d="m485.465 36.926-5.319-13.045c-4.753-11.657-18.104-17.274-29.761-12.522L398.89 32.354h-3.188a56.896 56.896 0 0 0-46.906-26.782L187.202 1.631c-4.169-.124-7.595 3.181-7.696 7.329a7.515 7.515 0 0 0 7.329 7.696l161.595 3.941a41.87 41.87 0 0 1 28.082 11.757H78.751l.465-.473c10.912-11.079 26.09-17.208 41.631-16.836l35.927.876c4.161.111 7.595-3.18 7.696-7.329S161.29.997 157.141.896L121.214.02c-19.687-.481-38.89 7.288-52.705 21.313l-10.854 11.02h-9.978c-12.589 0-22.831 10.242-22.831 22.831v14.089c0 12.589 10.242 22.831 22.831 22.831h6.227l25.115 292.317c-21.431 11.386-36.064 33.935-36.064 59.847 0 37.347 30.384 67.73 67.73 67.73h92.386a7.516 7.516 0 0 0 0-15.03h-49.908c15.387-12.426 25.253-31.429 25.253-52.701 0-37.347-30.384-67.731-67.731-67.731-5.895 0-11.615.761-17.071 2.183L68.989 92.105l226.439-.003a7.515 7.515 0 1 0 0-15.03l-247.752.003c-4.302 0-7.802-3.5-7.802-7.802V55.185c0-4.302 3.5-7.802 7.802-7.802h352.686c.973 0 1.936-.189 2.838-.556l52.858-21.551c3.985-1.623 8.547.295 10.17 4.279l5.319 13.045c1.624 3.983-.294 8.546-4.278 10.17l-49.274 20.086a56.727 56.727 0 0 1-21.509 4.216l-71 .001a7.515 7.515 0 1 0 0 15.03h57.066l-33.8 393.415c-.561 6.53-5.927 11.455-12.481 11.455H233.13a7.516 7.516 0 0 0 0 15.03h103.14c14.419 0 26.222-10.833 27.456-25.198L397.64 92.073c8.961-.142 17.713-1.91 26.029-5.3l49.275-20.087c11.656-4.752 17.273-18.103 12.521-29.76zM163.387 444.269c0 29.06-23.642 52.701-52.702 52.701s-52.701-23.641-52.701-52.701c0-21.56 13.02-40.128 31.605-48.281.279-.105.552-.221.813-.356a52.405 52.405 0 0 1 20.283-4.065c29.06.001 52.702 23.643 52.702 52.702z" fill="#000000" opacity="1" data-original="#000000" class=""></path><path d="M337.793 296.797c-.154-.47-.205-.843-.8-1.943l-38.703-65.608a7.515 7.515 0 0 0-10.288-2.656l-31.56 18.596a7.517 7.517 0 0 0-2.658 10.293l21.001 35.603-4.012-.006.003-1.881c.194-6.413-8.466-10.18-13.116-5.02l-24.743 27.663a7.514 7.514 0 0 0-.016 10.001l24.667 27.761c3.337 4.178 12.631 2.924 13.132-4.981l.003-1.881 38.866.053h.011a7.515 7.515 0 0 0 6.522-3.783l20.939-36.604c.636-1.886 1.39-1.789.752-5.607zm-67.243-42.48 18.612-10.966 28.191 47.788-25.102-.034zm34.676 73.438-42.016-.058h-.011c-1.417 0-2.792.4-3.975 1.137l-10.637-11.971 10.662-11.921a7.482 7.482 0 0 0 3.989 1.152l54.336.075zM223.413 293.171c-1.001-.991-3.014-2.138-5.316-2.201l-41.335.013 2.042-3.453 1.619.957c4.687 2.885 12.857-1.204 10.985-8.75l-11.267-35.363a7.509 7.509 0 0 0-8.607-5.092l-36.441 7.153c-5.421.964-8.798 9.456-2.378 13.842l1.619.957-19.783 33.456a7.513 7.513 0 0 0-.058 7.549l20.901 36.626c1.214 1.877 2.992 3.664 6.529 3.79l76.173-.026a7.514 7.514 0 0 0 7.512-7.513l.006-36.632a7.507 7.507 0 0 0-2.201-5.313zm-72.317-30.754a7.471 7.471 0 0 0 1.044-4.011l15.714-3.084 4.856 15.24a7.526 7.526 0 0 0-3.019 2.851l-27.655 46.771-12.326-21.6zm59.485 65.187-55.483.019 12.777-21.608 42.71-.014zM282.176 185.308a7.518 7.518 0 0 0-8.497-.738l-1.635.929-19.206-33.79a7.517 7.517 0 0 0-6.523-3.801l-42.17-.059c-1.517-.065-5.182 1.21-6.533 3.783l-37.823 66.119a7.514 7.514 0 0 0 2.788 10.252l31.788 18.205c1.988 1.402 7.465 1.668 10.258-2.79l20.525-35.879 1.982 3.487-1.635.929a7.514 7.514 0 0 0 2.135 13.881l36.288 7.792c2.909.566 6.589-.596 8.696-4.94l11.897-35.179a7.512 7.512 0 0 0-2.335-8.201zm-86.866 44.124-18.746-10.736 27.55-48.16 12.404 21.823zm65.212-11.902-15.638-3.358a7.516 7.516 0 0 0-.975-4.036l-26.849-47.238 24.869.035 20.762 36.527a7.514 7.514 0 0 0 2.963 2.899z" fill="#000000" opacity="1" data-original="#000000" class=""></path></g></svg>