<svg xmlns="http://www.w3.org/2000/svg" version="1.1" xmlns:xlink="http://www.w3.org/1999/xlink" width="512" height="512" x="0" y="0" viewBox="0 0 1024 1024" style="enable-background:new 0 0 512 512" xml:space="preserve" class=""><g><path d="M68.5 114.7h124.2c-12.9-9.8-25.7-19.6-38.6-29.4C165 130.9 176 176.5 186.9 222c6.4 26.5 12.7 53 19.1 79.4 14.3 59.7 28.7 119.5 43 179.2 10.6 44.3 21.3 88.6 31.9 132.9 8.7 36.3 17.4 72.5 26.1 108.8.5 2 1 4.1 1.5 6.1 4.1 17 21.4 29.4 38.6 29.4h449.2c20.7 0 41.4.3 62.1 0h.9c20.9 0 41-18.4 40-40-1-21.7-17.6-40-40-40H410.1c-20.7 0-41.4-.4-62.1 0h-.9c12.9 9.8 25.7 19.6 38.6 29.4-8.7-36.4-17.5-72.8-26.2-109.2-9.4-39.1-18.8-78.3-28.2-117.4-14.5-60.6-29.1-121.2-43.6-181.8-7.4-31-14.9-62-22.3-93-11-45.7-21.9-91.4-32.9-137-.4-1.6-.8-3.2-1.1-4.7-4.1-17-21.4-29.4-38.6-29.4H68.6c-20.9 0-41 18.4-40 40 .8 21.7 17.4 40 39.9 40z" fill="#a04808" opacity="1" data-original="#000000" class=""></path><path d="M917 205.9c-3.2 12.7-6.4 25.4-9.6 38.2-7.7 30.6-15.3 61.1-23 91.7-9.3 37.2-18.6 74.3-27.9 111.5-8 32-16 64-24.1 96-3.9 15.6-8.2 31.1-11.7 46.7-.1.2-.1.5-.2.7 12.9-9.8 25.7-19.6 38.6-29.4H387.6c-21.8 0-43.6-.3-65.3 0h-.9c-20.9 0-41 18.4-40 40 1 21.7 17.6 40 40 40h471.5c21.8 0 43.6.5 65.3 0h.9c17.2 0 34.3-12.4 38.6-29.4 3.2-12.7 6.4-25.4 9.6-38.2 7.7-30.6 15.3-61.1 23-91.7 9.3-37.2 18.6-74.3 27.9-111.5 8-32 16-64 24.1-96 3.9-15.6 8-31.1 11.7-46.7.1-.2.1-.5.2-.7 2.6-10.2 1.3-21.7-4-30.8-4.9-8.3-14.4-16.2-23.9-18.4-20.9-4.7-43.9 6.3-49.3 28zM455 886.9c0 2.8-.2 5.5-.5 8.2.5-3.5 1-7.1 1.4-10.6-.8 5.3-2.1 10.4-4.1 15.4 1.3-3.2 2.7-6.4 4-9.6-2.2 5.2-5 10.1-8.5 14.6l6.3-8.1c-3.2 4.1-6.9 7.7-11 11l8.1-6.3c-4.5 3.4-9.4 6.3-14.6 8.5 3.2-1.3 6.4-2.7 9.6-4-5 2-10.1 3.3-15.4 4.1 3.5-.5 7.1-1 10.6-1.4-5.5.7-11 .7-16.5 0 3.5.5 7.1 1 10.6 1.4-5.3-.8-10.4-2.1-15.4-4.1 3.2 1.3 6.4 2.7 9.6 4-5.2-2.2-10.1-5-14.6-8.5l8.1 6.3c-4.1-3.2-7.7-6.9-11-11l6.3 8.1c-3.4-4.5-6.3-9.4-8.5-14.6 1.3 3.2 2.7 6.4 4 9.6-2-5-3.3-10.1-4.1-15.4.5 3.5 1 7.1 1.4 10.6-.7-5.5-.7-11 0-16.5-.5 3.5-1 7.1-1.4 10.6.8-5.3 2.1-10.4 4.1-15.4-1.3 3.2-2.7 6.4-4 9.6 2.2-5.2 5-10.1 8.5-14.6l-6.3 8.1c3.2-4.1 6.9-7.7 11-11l-8.1 6.3c4.5-3.4 9.4-6.3 14.6-8.5-3.2 1.3-6.4 2.7-9.6 4 5-2 10.1-3.3 15.4-4.1-3.5.5-7.1 1-10.6 1.4 5.5-.7 11-.7 16.5 0-3.5-.5-7.1-1-10.6-1.4 5.3.8 10.4 2.1 15.4 4.1-3.2-1.3-6.4-2.7-9.6-4 5.2 2.2 10.1 5 14.6 8.5l-8.1-6.3c4.1 3.2 7.7 6.9 11 11l-6.3-8.1c3.4 4.5 6.3 9.4 8.5 14.6-1.3-3.2-2.7-6.4-4-9.6 2 5 3.3 10.1 4.1 15.4-.5-3.5-1-7.1-1.4-10.6.3 2.8.5 5.5.5 8.3.1 10.3 4.4 21 11.7 28.3 6.9 6.9 18.3 12.2 28.3 11.7 21.5-1 40.2-17.6 40-40-.2-19.8-5.8-40.7-17.4-56.9-13.5-18.9-30.6-32.1-52.5-40.1-37.2-13.7-83.9-1.1-109.2 29.4-7.6 9.2-13 17.6-17.6 28.5-4.7 11.1-6.8 21.5-7.9 33.6-1.7 19.5 4 40.8 14 57.6 9.8 16.5 25 31.4 42.5 39.4 12.8 5.9 23.5 8.7 37.4 10.4 10.2 1.2 20.4-.1 30.5-2 10.4-1.9 20.8-6.3 29.8-11.7 8.9-5.3 17.6-12.1 24.3-20.1 16.4-19.4 25.8-42.4 26.1-68.1.2-20.9-18.6-41-40-40-21.9 1-39.8 17.6-40 40zM791.5 886.9c0 2.8-.2 5.5-.5 8.2.5-3.5 1-7.1 1.4-10.6-.8 5.3-2.1 10.4-4.1 15.4 1.3-3.2 2.7-6.4 4-9.6-2.2 5.2-5 10.1-8.5 14.6l6.3-8.1c-3.2 4.1-6.9 7.7-11 11l8.1-6.3c-4.5 3.4-9.4 6.3-14.6 8.5 3.2-1.3 6.4-2.7 9.6-4-5 2-10.1 3.3-15.4 4.1 3.5-.5 7.1-1 10.6-1.4-5.5.7-11 .7-16.5 0 3.5.5 7.1 1 10.6 1.4-5.3-.8-10.4-2.1-15.4-4.1 3.2 1.3 6.4 2.7 9.6 4-5.2-2.2-10.1-5-14.6-8.5l8.1 6.3c-4.1-3.2-7.7-6.9-11-11l6.3 8.1c-3.4-4.5-6.3-9.4-8.5-14.6 1.3 3.2 2.7 6.4 4 9.6-2-5-3.3-10.1-4.1-15.4.5 3.5 1 7.1 1.4 10.6-.7-5.5-.7-11 0-16.5-.5 3.5-1 7.1-1.4 10.6.8-5.3 2.1-10.4 4.1-15.4-1.3 3.2-2.7 6.4-4 9.6 2.2-5.2 5-10.1 8.5-14.6l-6.3 8.1c3.2-4.1 6.9-7.7 11-11l-8.1 6.3c4.5-3.4 9.4-6.3 14.6-8.5-3.2 1.3-6.4 2.7-9.6 4 5-2 10.1-3.3 15.4-4.1-3.5.5-7.1 1-10.6 1.4 5.5-.7 11-.7 16.5 0-3.5-.5-7.1-1-10.6-1.4 5.3.8 10.4 2.1 15.4 4.1-3.2-1.3-6.4-2.7-9.6-4 5.2 2.2 10.1 5 14.6 8.5l-8.1-6.3c4.1 3.2 7.7 6.9 11 11l-6.3-8.1c3.4 4.5 6.3 9.4 8.5 14.6-1.3-3.2-2.7-6.4-4-9.6 2 5 3.3 10.1 4.1 15.4-.5-3.5-1-7.1-1.4-10.6.3 2.8.5 5.5.5 8.3.1 10.3 4.4 21 11.7 28.3 6.9 6.9 18.3 12.2 28.3 11.7 21.5-1 40.2-17.6 40-40-.2-19.8-5.8-40.7-17.4-56.9-13.5-18.9-30.6-32.1-52.5-40.1-37.2-13.7-83.9-1.1-109.2 29.4-7.6 9.2-13 17.6-17.6 28.5-4.7 11.1-6.8 21.5-7.9 33.6-1.7 19.5 4 40.8 14 57.6 9.8 16.5 25 31.4 42.5 39.4 12.8 5.9 23.5 8.7 37.4 10.4 10.2 1.2 20.4-.1 30.5-2 10.4-1.9 20.8-6.3 29.8-11.7 8.9-5.3 17.6-12.1 24.3-20.1 16.4-19.4 25.8-42.4 26.1-68.1.2-20.9-18.6-41-40-40-21.9 1-39.8 17.6-40 40z" fill="#a04808" opacity="1" data-original="#000000" class=""></path><path d="M621.1 452.7V233.1c0-20.9-18.4-41-40-40-21.7 1-40 17.6-40 40v219.6c0 20.9 18.4 41 40 40 21.7-1 40-17.6 40-40z" fill="#a04808" opacity="1" data-original="#000000" class=""></path><path d="M690.9 302.9H471.3c-20.9 0-41 18.4-40 40 1 21.7 17.6 40 40 40h219.6c20.9 0 41-18.4 40-40-1-21.7-17.6-40-40-40z" fill="#a04808" opacity="1" data-original="#000000" class=""></path></g></svg>