<svg xmlns="http://www.w3.org/2000/svg" viewBox="0 0 512 512"><path d="M178.284,308.451l-4.111,3.4,1.328,5.159a11.609,11.609,0,0,1-10.528,14.483l-5.323.328L157.7,336.76a11.61,11.61,0,0,1-17.04,5.536l-4.485-2.858-4.485,2.858a11.611,11.611,0,0,1-17.04-5.536l-1.947-4.943-5.322-.328a11.61,11.61,0,0,1-10.529-14.484l1.329-5.158-4.112-3.4a11.609,11.609,0,0,1,0-17.9l4.112-3.4L96.855,282a11.61,11.61,0,0,1,10.529-14.483l5.322-.328,1.947-4.943a11.611,11.611,0,0,1,17.04-5.536l4.485,2.857,4.485-2.857a11.61,11.61,0,0,1,17.04,5.536l1.948,4.943,5.322.328A11.609,11.609,0,0,1,175.5,282l-1.328,5.158,4.111,3.4A11.609,11.609,0,0,1,178.284,308.451Z" fill="#8b6838"/><path d="M178.28,308.45l-4.11,3.4,1.33,5.16a11.609,11.609,0,0,1-10.53,14.48l-5.32.33-1.95,4.94a11.613,11.613,0,0,1-17.04,5.54l-4.48-2.86-4.49,2.86a11.539,11.539,0,0,1-10.69.92V330.5a99.685,99.685,0,0,1,32.37-73.65,11.518,11.518,0,0,1,4.33,5.39l1.95,4.94,5.32.33A11.614,11.614,0,0,1,175.5,282l-1.33,5.15,4.11,3.4A11.6,11.6,0,0,1,178.28,308.45Z" fill="#80633f"/><path d="M311,115.472H181a7.5,7.5,0,0,1,0-15H311a7.5,7.5,0,0,1,0,15Z" fill="#c5c5c5"/><path d="M311,88H181a7.5,7.5,0,0,1,0-15H311a7.5,7.5,0,0,1,0,15Z" fill="#c5c5c5"/><path d="M311,60.576H181a7.5,7.5,0,0,1,0-15H311a7.5,7.5,0,0,1,0,15Z" fill="#c5c5c5"/><rect x="68.25" y="22.75" width="30" height="115.5" transform="translate(163.75 -2.75) rotate(90)" fill="#c5c5c5"/><polygon points="181 115.5 181 45.5 161 45.5 141 65.5 141 95.5 161 115.5 181 115.5" fill="#c5c5c5"/><path d="M271,25.5h30a0,0,0,0,1,0,0v215a15,15,0,0,1-15,15h0a15,15,0,0,1-15-15V25.5A0,0,0,0,1,271,25.5Z" transform="translate(572 281) rotate(180)" fill="#ffcb80"/><path d="M241,25.5h30a0,0,0,0,1,0,0v215a15,15,0,0,1-15,15h0a15,15,0,0,1-15-15V25.5A0,0,0,0,1,241,25.5Z" transform="translate(512 281) rotate(180)" fill="#ffb355"/><path d="M211,25.5h30a0,0,0,0,1,0,0v215a15,15,0,0,1-15,15h0a15,15,0,0,1-15-15V25.5a0,0,0,0,1,0,0Z" transform="translate(452 281) rotate(180)" fill="#ffcb80"/><path d="M241,216.5v24H211V219.65a100.035,100.035,0,0,1,25-3.15Z" fill="#ffb155"/><rect x="241" y="216.5" width="30" height="24" fill="#f19b40"/><path d="M301,219.65V240.5H271v-24h5A100.035,100.035,0,0,1,301,219.65Z" fill="#ffb155"/><path d="M376,330.5v25H136v-25a100,100,0,0,1,100-100h40A100,100,0,0,1,376,330.5Z" fill="#ffcb80"/><path d="M346,330.5v5H166v-5a70,70,0,0,1,70-70h40A70,70,0,0,1,346,330.5Z" fill="#ffb355"/><path d="M316,330.5v5H196v-5a40,40,0,0,1,40-40h40A40,40,0,0,1,316,330.5Z" fill="#ffcb80"/><path d="M376,330.5v25H136v-25a100.141,100.141,0,0,1,1.75-18.7q3.84-.3,7.75-.3h40a99.59,99.59,0,0,1,70,28.6,99.626,99.626,0,0,1,70-28.6h40c2.95,0,5.88.13,8.77.39A100.1,100.1,0,0,1,376,330.5Z" fill="#ffb355"/><path d="M185.5,311.5a99.515,99.515,0,0,1,64.98,24H166v-5a69.634,69.634,0,0,1,2.62-19Z" fill="#f19b40"/><path d="M346,330.5v5H260.52a99.554,99.554,0,0,1,64.98-24h17.88A69.634,69.634,0,0,1,346,330.5Z" fill="#f19b40"/><path d="M200.23,312.59a99.352,99.352,0,0,1,50.25,22.91H196v-5A39.743,39.743,0,0,1,200.23,312.59Z" fill="#ffb355"/><path d="M316,330.5v5H260.52a99.615,99.615,0,0,1,51.18-23.06A39.841,39.841,0,0,1,316,330.5Z" fill="#ffb355"/><path d="M286,335.5l-30.5,20-29.5-20a15.005,15.005,0,0,1,15-15h30A15,15,0,0,1,286,335.5Z" fill="#ffb355"/><path d="M286,335.5l-30.5,20-29.5-20a14.977,14.977,0,0,1,6.45-12.32A100.437,100.437,0,0,1,255.5,340.1a100.18,100.18,0,0,1,23.62-17.21A14.982,14.982,0,0,1,286,335.5Z" fill="#f19b40"/><path d="M285.5,426.5v5H45.5v-5a100,100,0,0,1,100-100h40A100,100,0,0,1,285.5,426.5Z" fill="#ffcb80"/><path d="M285.5,426.5v5H45.5v-5a100.035,100.035,0,0,1,3.15-25h233.7A100.035,100.035,0,0,1,285.5,426.5Z" fill="#ffb355"/><path d="M255.5,426.5v5H75.5v-5a70,70,0,0,1,70-70h40A70,70,0,0,1,255.5,426.5Z" fill="#ffb355"/><path d="M195.5,431.5h-60a15.005,15.005,0,0,1,15-15h30A15,15,0,0,1,195.5,431.5Z" fill="#ffb355"/><path d="M255.5,426.5v5H75.5v-5a69.8,69.8,0,0,1,4.6-25H250.9A69.8,69.8,0,0,1,255.5,426.5Z" fill="#f19b40"/><path d="M225.5,426.5v5h-120v-5a40,40,0,0,1,40-40h40A40,40,0,0,1,225.5,426.5Z" fill="#ffcb80"/><path d="M225.5,426.5v5h-120v-5a39.838,39.838,0,0,1,8.78-25H216.72A39.838,39.838,0,0,1,225.5,426.5Z" fill="#ffb355"/><path d="M285.5,426.5v5h-75v-5A99.794,99.794,0,0,1,248,348.44,99.794,99.794,0,0,1,285.5,426.5Z" fill="#ffb355"/><path d="M255.5,426.5v5h-45v-5a99.525,99.525,0,0,1,17.09-55.93A69.876,69.876,0,0,1,255.5,426.5Z" fill="#f19b40"/><path d="M465.5,426.5v5h-240v-5a100,100,0,0,1,100-100h40A100,100,0,0,1,465.5,426.5Z" fill="#ffcb80"/><path d="M465.5,426.5v5h-240v-5a100.035,100.035,0,0,1,3.15-25h233.7A100.035,100.035,0,0,1,465.5,426.5Z" fill="#ffb355"/><path d="M435.5,426.5v5h-180v-5a70,70,0,0,1,70-70h40A70,70,0,0,1,435.5,426.5Z" fill="#ffb355"/><path d="M375.5,431.5h-60a15.005,15.005,0,0,1,15-15h30A15,15,0,0,1,375.5,431.5Z" fill="#ffb355"/><path d="M435.5,426.5v5h-180v-5a69.8,69.8,0,0,1,4.6-25H430.9A69.8,69.8,0,0,1,435.5,426.5Z" fill="#f19b40"/><path d="M405.5,426.5v5h-120v-5a40,40,0,0,1,40-40h40A40,40,0,0,1,405.5,426.5Z" fill="#ffcb80"/><path d="M405.5,426.5v5h-120v-5a39.838,39.838,0,0,1,8.78-25H396.72A39.838,39.838,0,0,1,405.5,426.5Z" fill="#ffb355"/><path d="M368.77,293.11a31.489,31.489,0,0,1-14.88,3.35c-12.96,0-19.09-5.7-25.59-11.1-5.86-4.87-12.02-9.51-23.68-9.51-11.69,0-17.83,4.64-23.69,9.51-6.5,5.4-12.64,11.1-25.59,11.1s-19.09-5.7-25.59-11.1c-5.87-4.87-12-9.51-23.7-9.51-11.67,0-17.82,4.64-23.67,9.51-6.49,5.4-12.64,11.1-25.61,11.1a31.768,31.768,0,0,1-13.76-2.81A100.039,100.039,0,0,1,236,230.5h40A100.011,100.011,0,0,1,368.77,293.11Z" fill="#ef5d40"/><path d="M123.928,398.451l-4.112,3.4,1.329,5.159a11.61,11.61,0,0,1-10.529,14.483l-5.322.328-1.947,4.943a11.611,11.611,0,0,1-17.04,5.536l-4.485-2.858L77.337,432.3A11.61,11.61,0,0,1,60.3,426.76l-1.948-4.943-5.322-.328A11.609,11.609,0,0,1,42.5,407.005l1.328-5.158-4.111-3.4a11.609,11.609,0,0,1,0-17.9l4.111-3.4L42.5,372a11.609,11.609,0,0,1,10.528-14.483l5.323-.328,1.947-4.943a11.61,11.61,0,0,1,17.04-5.536l4.485,2.857,4.485-2.857a11.611,11.611,0,0,1,17.04,5.536l1.947,4.943,5.322.328A11.61,11.61,0,0,1,121.145,372l-1.329,5.158,4.112,3.4A11.609,11.609,0,0,1,123.928,398.451Z" fill="#8b6838"/><path d="M110.62,421.49l-5.33.33-1.94,4.94a11.617,11.617,0,0,1-17.04,5.54l-4.49-2.86-4.48,2.86a11.613,11.613,0,0,1-17.04-5.54l-1.95-4.94-5.32-.33A11.609,11.609,0,0,1,42.5,407.01l1.33-5.16-.42-.35h76.83l-.42.35,1.32,5.16A11.6,11.6,0,0,1,110.62,421.49Z" fill="#80633f"/><circle cx="132" cy="399" r="25" fill="#8bc932"/><path d="M156.87,401.5a24.995,24.995,0,0,1-49.74,0Z" fill="#80b524"/><path d="M409.556,464.389,418.5,446.5H93.5l8.944,17.889A40,40,0,0,0,138.221,486.5H373.779A40,40,0,0,0,409.556,464.389Z" fill="#92bccd"/><rect x="25.5" y="416.5" width="461" height="30" rx="15" fill="#e8f2f8"/><path d="M70.5,446.5h-30a15,15,0,0,1,0-30h30a15,15,0,0,0,0,30Z" fill="#acd1e4"/><path d="M278.5,214.992V89.482a7.5,7.5,0,1,0-15,0v125.51a7.5,7.5,0,0,0,15,0Z" fill="#525651"/><circle cx="241" cy="165.93" r="7.5" fill="#525651"/><path d="M471.556,409a107.49,107.49,0,0,0-88.542-88.572,106.516,106.516,0,0,0-7.254-30.137c-.135-.335-.294-.672-.467-1.009a107.12,107.12,0,0,0-66.793-61.3V115.472H311a7.5,7.5,0,0,0,0-15h-2.5V88H311a7.5,7.5,0,0,0,0-15h-2.5V60.576H311a7.5,7.5,0,0,0,0-15h-2.5V40.5A22.486,22.486,0,0,0,271,23.747a22.449,22.449,0,0,0-30,0A22.486,22.486,0,0,0,203.5,40.5v5.076h-15V45.5A7.5,7.5,0,0,0,181,38H161a7.5,7.5,0,0,0-5.3,2.2L137.894,58H25.5A7.5,7.5,0,0,0,18,65.5v30a7.5,7.5,0,0,0,7.5,7.5h20a7.5,7.5,0,0,0,0-15H33V73H141a7.5,7.5,0,0,0,5.3-2.2l17.8-17.8H173.5v55h-9.394L146.3,90.2A7.5,7.5,0,0,0,141,88H70.5a7.5,7.5,0,0,0,0,15h67.394l17.8,17.8A7.5,7.5,0,0,0,161,123h20a7.5,7.5,0,0,0,7.5-7.5v-.028h15V228a106.961,106.961,0,0,0-28.589,14.032,108.438,108.438,0,0,0-13.975,11.52,19.055,19.055,0,0,0-24.3-3.177l-.456.291-.455-.291a19.11,19.11,0,0,0-28.048,9.114l-.2.5-.557.034a19.11,19.11,0,0,0-17.33,23.839l.139.542-.435.361a19.108,19.108,0,0,0,0,29.465l.436.36-.139.542a19.049,19.049,0,0,0,3.049,16c.3.417.627.815.96,1.2a108.393,108.393,0,0,0-12.334,7.978,19.105,19.105,0,0,0-27.948,9.172l-.2.5-.556.034a19.111,19.111,0,0,0-17.331,23.839l.14.542-.436.361a19.109,19.109,0,0,0,0,29.465l.436.36-.14.542a19.007,19.007,0,0,0-.576,4.638A22.5,22.5,0,0,0,40.5,454H88.865l6.871,13.743A47.24,47.24,0,0,0,138.221,494H373.779a47.24,47.24,0,0,0,42.485-26.257L423.135,454H471.5a22.5,22.5,0,0,0,.056-45Zm-15.217,0H409.673A47.483,47.483,0,0,0,365.5,379h-40a47.5,47.5,0,0,0-44.171,30H265.491A62.845,62.845,0,0,1,325.5,364h40a62.735,62.735,0,0,1,54.17,31.3,7.5,7.5,0,0,0,12.991-7.5A77.78,77.78,0,0,0,365.5,349h-40A77.512,77.512,0,0,0,250,409H234.658A92.533,92.533,0,0,1,325.5,334h40a92.517,92.517,0,0,1,90.839,75ZM392.9,409H298.1a32.508,32.508,0,0,1,27.4-15h40A32.5,32.5,0,0,1,392.9,409ZM125.359,357.863a19.048,19.048,0,0,0-14.282-7.837l-.556-.034-.2-.5a19.1,19.1,0,0,0-4.407-6.631A91.8,91.8,0,0,1,145.5,334h20.387c.077,0,.155.006.232.006.044,0,.086,0,.13-.006H185.5a92.349,92.349,0,0,1,47.556,13.143,7.5,7.5,0,1,0,7.723-12.859q-2.858-1.716-5.812-3.239A7.5,7.5,0,0,1,241,328h30a7.491,7.491,0,0,1,5.742,2.683,107.466,107.466,0,0,0-41.069,36.787A77.755,77.755,0,0,0,185.5,349h-40a7.5,7.5,0,0,0,0,15h40a62.7,62.7,0,0,1,42.67,16.864,106.755,106.755,0,0,0-5.9,15.552A47.493,47.493,0,0,0,185.5,379H157.589A32.452,32.452,0,0,0,132,366.5c-1.06,0-2.107.055-3.142.155A19.062,19.062,0,0,0,125.359,357.863Zm196.759-38.8a47.285,47.285,0,0,0-29.292-33.008,23.7,23.7,0,0,1,11.794-2.7c8.863,0,13.233,3.08,18.887,7.778l.969.809c.613.512,1.245,1.037,1.891,1.566A62.084,62.084,0,0,1,337.435,319H325.5C324.37,319,323.243,319.024,322.118,319.059Zm-15.146,1.547a107.183,107.183,0,0,0-16.226,4.154A22.5,22.5,0,0,0,271,313H241a22.5,22.5,0,0,0-19.9,12.047,107.425,107.425,0,0,0-16.106-4.257,32.776,32.776,0,0,1,29.054-22.724,41.4,41.4,0,0,0,42.662-.049A32.373,32.373,0,0,1,306.972,320.606ZM189.9,319.1c-1.463-.059-2.928-.1-4.4-.1H174.558a61.9,61.9,0,0,1,13.211-28.252c.077-.093.142-.192.213-.287,5.265-4.318,9.626-7.111,18.068-7.111a23.511,23.511,0,0,1,12.423,3.055A48,48,0,0,0,189.9,319.1Zm-30.535-.1H145.5c-.429,0-.854.021-1.282.026a92.619,92.619,0,0,1,3.429-15.983,43.6,43.6,0,0,0,9.123.917,44.9,44.9,0,0,0,6.568-.479A77.1,77.1,0,0,0,159.361,319Zm-41.7,90a17.5,17.5,0,1,1,28.682,0Zm46.456-15H185.5a32.5,32.5,0,0,1,27.4,15H162.924a32.562,32.562,0,0,0,1.191-15Zm203.657-74.974c-.756-.016-1.514-.026-2.272-.026H352.639a77.017,77.017,0,0,0-3.905-15.323,46.409,46.409,0,0,0,5.156.283,42.786,42.786,0,0,0,10.311-1.2A91.672,91.672,0,0,1,367.772,319.026ZM203.5,60.576V73h-15V60.576Zm-15,39.9V88h15v12.472Zm-5.056,153.9A91.95,91.95,0,0,1,236,238h22.954a7.5,7.5,0,0,0,0-15H248.5V187.118a7.5,7.5,0,0,0-15,0v35.929a108.072,108.072,0,0,0-15,1.385V40.5a7.5,7.5,0,0,1,15,0V144.9a7.5,7.5,0,0,0,15,0V40.5a7.5,7.5,0,0,1,15,0v25a7.5,7.5,0,0,0,15,0v-25a7.5,7.5,0,0,1,15,0V224.425c-2.233-.365-4.486-.669-6.759-.9a7.5,7.5,0,0,0-1.482,14.927,92.1,92.1,0,0,1,73.25,50.171,30.248,30.248,0,0,1-4.619.332c-9.583,0-14.09-3.766-19.8-8.534l-1-.834c-6.844-5.689-14.681-11.242-28.473-11.242s-21.639,5.553-28.483,11.241l-.99.826c-5.713,4.773-10.226,8.543-19.807,8.543s-14.094-3.77-19.807-8.543l-.994-.83c-5.395-4.474-13.547-11.237-28.489-11.237-13.8,0-21.633,5.555-28.467,11.245l-.961.8c-5.719,4.784-10.236,8.563-19.852,8.563a32.157,32.157,0,0,1-3.362-.167A92.477,92.477,0,0,1,183.444,254.372ZM107.845,324a4.111,4.111,0,0,1-3.727-5.127l1.328-5.157a7.5,7.5,0,0,0-2.486-7.654l-4.111-3.4a4.109,4.109,0,0,1,0-6.337l4.111-3.4a7.5,7.5,0,0,0,2.487-7.653l-1.329-5.158A4.11,4.11,0,0,1,107.845,275l5.323-.329a7.5,7.5,0,0,0,6.517-4.737l1.946-4.941a4.111,4.111,0,0,1,6.033-1.961l4.484,2.858a7.5,7.5,0,0,0,8.06,0l4.485-2.857a4.109,4.109,0,0,1,6.032,1.959l.013.028a107.33,107.33,0,0,0-14.7,25.867,7.53,7.53,0,0,0-.257.778c-.246.533-.484,1.087-.705,1.686A107.092,107.092,0,0,0,129,320.262a106.212,106.212,0,0,0-16.866,4ZM44.493,386.332l4.111-3.4a7.5,7.5,0,0,0,2.486-7.653l-1.328-5.159A4.108,4.108,0,0,1,53.489,365l5.322-.329a7.5,7.5,0,0,0,6.517-4.736l1.947-4.943a4.11,4.11,0,0,1,6.032-1.96l4.485,2.858a7.5,7.5,0,0,0,8.06,0l4.485-2.858a4.111,4.111,0,0,1,6.032,1.96l1.947,4.943a7.5,7.5,0,0,0,6.517,4.737l5.322.328a4.11,4.11,0,0,1,3.727,5.127l-.6,2.332A32.466,32.466,0,0,0,101.076,409H49.738c.009-.042.012-.081.023-.124l1.329-5.157a7.5,7.5,0,0,0-2.486-7.654l-4.111-3.4a4.109,4.109,0,0,1,0-6.337ZM471.5,439h-285a7.5,7.5,0,0,0,0,15H406.365l-3.518,7.035A32.322,32.322,0,0,1,373.779,479H138.221a32.324,32.324,0,0,1-29.069-17.965L105.635,454h54.534a7.5,7.5,0,0,0,0-15H40.5a7.5,7.5,0,0,1,0-15h431a7.5,7.5,0,0,1,0,15Z" fill="#525651"/></svg>