<svg id="Layer_1" enable-background="new 0 0 512.075 512.075" height="512" viewBox="0 0 512.075 512.075" width="512" xmlns="http://www.w3.org/2000/svg"><g><g><g><g><path d="m470.443 58.322-153.776 105.212c-38.546 24.638-79.359 56.078-118.225 92.536-9.072 8.51-17.728 17.045-25.96 25.561l-118.683 143.569.07 53.903c.992 10.713 2.633 13.634 10.253 18.192 36.932 22.093 177.98-3.053 302.035-125.513 100-98.715 103.543-161.767 104.91-211.528z" fill="#dc8758"/><g><g><path d="m64.833 440.732c-36.165-19.248 19.926-120.467 127.245-231.416s224.627-194.8 263.116-174.316c44.433 23.648-1.252 172.864-108.572 283.813s-247.183 140.337-281.789 121.919z" fill="#ffe5c2"/></g></g></g><g><path d="m381.199 38.656c6.293-20.309 29.827-31.155 29.827-31.155s13.332 22.082 7.039 42.391-29.827 31.155-29.827 31.155-13.332-22.082-7.039-42.391z" fill="#4fc123"/><g><g><path d="m264.119 19.084c-18.467 66.019 20.183 135.203 86.594 153.776 66.41 18.573 135.352-20.368 153.819-86.387l-90.438-25.35-32.073 2.811-25.199-18.864z" fill="#fd4755"/><path d="m414.094 61.123-32.073 5.23-25.206-21.256-67.333-18.819c-2.457 10.184-6.513 37.59 9.29 71.221 11.027 23.468 28.988 37.964 42.248 46.042 8.268 5.037 19.054.948 21.566-8.218v-.001.001c-2.56 9.153 4.587 18.206 14.268 18.139 15.528-.108 38.387-3.302 59.914-17.757 30.356-20.382 41.123-45.484 44.443-55.808z" fill="#fe99a0"/><g><path d="m438.729 68.019c-3.485 10.589-14.374 35.265-44.296 55.355-10.794 7.248-21.923 11.664-32.295 14.28-.878 8.298 5.858 15.871 14.715 15.81 15.528-.108 38.387-3.302 59.914-17.757 30.356-20.382 41.123-45.484 44.443-55.808z" fill="#fd8087"/></g></g><g><path d="m414.092 61.129c-1.198 4.203 4.948 12.601 2.052 16.235-2.895 3.634-12.37-.492-16.208 1.626-3.979 2.195-5.494 12.312-9.948 12.816s-8.272-9.009-12.654-10.258c-4.228-1.204-12.498 4.929-16.159 2.037s.457-12.306-1.683-16.131c-2.218-3.965-12.391-5.503-12.911-9.936s9.03-8.203 10.272-12.559z" fill="#ffe5c2"/></g></g><path d="m232.722 110.781c-9.155-19.2.853-42.963.853-42.963s24.852 7.366 34.006 26.566c9.155 19.2-.853 42.963-.853 42.963s-24.851-7.366-34.006-26.566z" fill="#4fc123"/><path d="m302.57 295.901c-20.885-4.308-34.039-26.639-34.039-26.639s20.707-15.346 41.592-11.038 34.039 26.639 34.039 26.639-20.707 15.346-41.592 11.038z" fill="#4fc123"/><ellipse cx="311.442" cy="176.165" fill="#f9f3f1" rx="82.204" ry="90.43" transform="matrix(.199 -.98 .98 .199 76.747 446.255)"/><path d="m329.663 96.002c-14.242-3.178-28.393-3.115-41.541-.331.513.106 1.027.216 1.541.331 48.743 10.876 80.099 55.582 70.036 99.855-7.123 31.336-33.087 54.056-64.937 60.801 48.203 9.972 94.979-16.995 104.937-60.801 10.063-44.272-21.293-88.979-70.036-99.855z" fill="#f3eae6"/><g><g><path d="m109.057 182.414c15.343 66.809 82.384 109.157 149.617 93.801 67.232-15.356 109.188-82.449 93.845-149.258l-91.537 20.851-24.148 16.041-33.898-2.819z" fill="#fd4755"/><path d="m328.884 132.304-67.901 15.509-24.149 16.036-33.889-2.779-68.163 15.569c2.71 10.119 12.252 36.131 42.218 58.141 20.911 15.358 43.623 19.528 59.138 20.301 9.673.482 17.195-8.254 15.019-17.505v-.001.001c2.127 9.262 12.736 13.808 21.21 9.131 13.592-7.5 32.149-21.209 44.152-44.175 16.927-32.386 14.385-59.575 12.365-70.228z" fill="#fe99a0"/><path d="m328.884 132.304-39.71 9.07c1.927 11.622 3.465 37.751-12.654 68.591-6.739 12.894-15.544 22.87-24.377 30.468 3.432 7.286 12.675 10.439 20.224 6.273 13.592-7.5 32.149-21.209 44.152-44.175 16.927-32.385 14.385-59.574 12.365-70.227z" fill="#fd8087"/></g><g><path d="m260.984 147.813c.957 4.264 10.324 8.722 9.518 13.295-.807 4.573-11.104 5.468-13.464 9.158-2.446 3.826 1.06 13.436-2.612 16.004-3.673 2.567-11.576-3.97-16.024-2.977-4.29.958-8.625 10.291-13.224 9.497-4.6-.795-5.483-11.029-9.192-13.369-3.845-2.426-13.518 1.075-16.095-2.572s4.012-11.513 3.02-15.933z" fill="#ffe5c2"/></g></g><path d="m135.855 240.355c18.998 9.694 25.569 34.613 25.569 34.613s-24.231 9.202-43.228-.492c-18.998-9.694-25.569-34.613-25.569-34.613s24.23-9.202 43.228.492z" fill="#4fc123"/><ellipse cx="221.713" cy="332.197" fill="#f9f3f1" rx="90.461" ry="82.175" transform="matrix(.937 -.351 .351 .937 -102.414 98.845)"/><path d="m305.987 299.32c-14.779-37.56-56.911-57.153-98.793-48.257 26.398 5.752 48.822 22.915 58.793 48.257 16.617 42.234-7.642 91.19-54.185 109.348-5.15 2.009-10.357 3.557-15.569 4.664 17.594 3.834 36.954 2.598 55.569-4.664 46.543-18.157 70.802-67.114 54.185-109.348z" fill="#f3eae6"/><g><g><path d="m7.532 359.446c41.71 54.429 120.3 65.176 175.093 23.34 54.794-41.836 65.099-120.268 23.389-174.697l-74.64 56.918-16.537 24.493-30.218 11.162z" fill="#fd4755"/><g><path d="m186.73 222.75-55.353 42.263-15.274 27.575-31.46 8.107-56.104 42.835c6.669 8.083 26.155 27.797 62.563 35.404 25.405 5.308 47.803-.311 62.24-6.037 9.001-3.57 12.216-14.637 6.394-22.152 5.783 7.546 17.323 7.285 23.091-.482 9.251-12.457 20.442-32.621 21.823-58.492 1.95-36.48-11.658-60.165-17.92-69.021z" fill="#fe99a0"/></g><g><path d="m186.73 222.75-31.619 24.142c6.771 10.869 17.16 33.094 15.441 65.28-.812 15.208-5.014 28.443-10.219 39.301 5.948 6.792 16.918 6.299 22.494-1.21 9.251-12.457 20.442-32.621 21.823-58.492 1.95-36.48-11.658-60.165-17.92-69.021z" fill="#fd8087"/></g><g><path d="m131.377 265.012c2.642 3.483 13.031 3.646 14.197 8.141s-7.832 9.577-8.446 13.912c-.637 4.495 6.546 11.786 4.271 15.644s-12.182 1.185-15.816 3.932c-3.506 2.65-3.572 12.938-8.087 14.121s-9.57-7.763-13.917-8.355c-4.506-.614-11.853 6.581-15.713 4.33-3.859-2.25-1.132-12.138-3.871-15.748z" fill="#ffe5c2"/></g></g></g></g></g></g><path d="m506.556 79.252c-9.013-2.526-18.022-5.068-27.037-7.579-.889-26.925-11.618-38.406-20.802-43.293-8.296-4.416-19.283-5.13-32.738-2.141-2.562-12.571-8.154-21.987-8.533-22.614-1.976-3.269-6.091-4.533-9.56-2.935-16.372 7.545-31.902 22.866-35.136 41.056l-106.606-29.883c-4.519-.821-7.602.913-9.247 5.201-4.73 16.909-6.023 34.406-3.898 51.608-8.821-5.472-16.686-7.864-17.293-8.044-3.664-1.087-7.559.758-9.043 4.28-.462 1.097-11.193 27.117-.711 49.101 1.39 2.916 3.139 5.725 5.228 8.401-6.297 8.162-11.133 17.476-14.095 27.705l-109.694 24.987c-4.367 1.436-6.249 4.434-5.644 8.991 3.711 16.16 10.273 31.185 19.379 44.576-16.081-1.426-30.349 3.874-31.164 4.183-3.587 1.362-5.567 5.213-4.589 8.923.256.974 5.584 20.591 20.414 33.312-34.227 26.178-68.533 52.261-102.803 78.395-3.379 3.12-3.848 6.629-1.405 10.526 12.901 16.834 29.088 29.711 46.984 38.422-1.801 7.544-2.274 15.086-2.263 22.78l.07 53.903c3.379 52.299 100.678 29.902 138.512 16.736 114.897-36.189 301.738-184.078 293.682-335.387.114-4.921-.056-9.866-.086-14.789 15.488-15.64 27.122-35.175 33.276-57.178 1.116-3.989-1.212-8.126-5.198-9.243zm-111.199 53.573c-5.003-7.911-11.209-15.053-18.345-21.235l4.393-15.703c2.436 2.15 6.084 3.746 9.427 3.37 6.501-.735 9.468-6.736 11.432-10.706.371-2.738 1.799-3.556 4.283-2.455 4.5.467 11.298 1.169 15.464-4.059 2.586-3.246 2.716-6.953 2.088-10.321l47.156 13.218c-12.631 28.516-39.979 51.079-70.271 58.185-1.635-3.509-3.511-6.947-5.627-10.294zm-93.232-46.542c-8.343-21.586-8.187-39.677-6.742-50.647l47.213 13.234c-2.198 2.466-3.925 5.579-3.463 9.521 1.126 7.886 8.26 9.853 13.51 12.82-.032.841-.147 1.983-.233 2.829-.456 4.488-1.146 11.271 4.118 15.429 3.31 2.615 7.104 2.698 10.527 2.038l-2.956 10.568c-17.907-11.326-40.891-17.141-61.974-15.792zm104.889-19.355c.362 1.401.833 2.757 1.282 4.05.025.074.052.15.079.228-.098-.01-.192-.02-.284-.03-3.757-.389-8.015-.829-11.776 1.246-3.847 2.122-5.777 6.002-7.476 9.437-6.534-7.908-11.338-9.47-21.197-6.104-.34.232-.444.166-.311-.196.381-3.75.812-8-1.293-11.765-2.13-3.809-6.006-5.734-9.442-7.425 1.032-.843 2.108-1.726 3.122-2.697zm44.656-25.307c5.177 2.756 11.133 9.498 12.579 25.772l-40.457-11.34c1.93-4.603 3.059-9.709 3.359-14.682 10.724-2.687 19.136-2.614 24.519.25zm-63.307-.746c3.337-10.769 12.933-18.616 19.435-22.882 4.326 10.455 6.594 23.378 1.386 33.964l-21.888-6.135c.224-1.723.58-3.376 1.067-4.947zm-118.812-12.479 11.271 3.159c-1.829 11.965-2.603 32.385 6.057 56.749-4.191.879-8.291 2.015-12.274 3.392-.674-1.469-1.439-2.906-2.259-4.266-6.005-19.21-6.948-39.452-2.795-59.034zm-31.276 49.367c9.006 4.228 18.146 10.671 22.562 19.9-7.027 3.711-13.515 8.246-19.286 13.505-6.43-9.662-6.009-22.577-3.276-33.405zm89.755 25.559c40.514 9.04 74.128 47.878 64.355 90.873-7.247 31.887-36.339 54.31-70.96 56.808 33.398-31.473 49.086-79.212 38.403-125.725-.925-4.032-4.94-6.553-8.976-5.634l-116.436 26.522c14.295-32.941 53.597-51.773 93.614-42.844zm-116.511 304.553c-13.279-2.122-24.87-3.806-36.749-10.714 47.733-28.576 72.896-85.699 61.664-140.254 46.907 4.882 79.985 50.832 62.233 96.427-14.838 34.292-49.406 56.467-87.148 54.541zm-45.829-61.692c-8.471-11.586-17.514-22.729-26.182-34.165 11.741-2.621 11.42-12.966 6.662-21.073-1.96-1.934-1.757-3.559.608-4.875 3.08-3.314 7.735-8.321 6.056-14.796-1.04-4.013-3.923-6.344-6.99-7.867 12.976-9.895 25.951-19.789 38.927-29.684 6.063 10.841 13.848 30.384 12.392 57.65-1.285 24.054-11.778 42.871-20.355 54.42-2.812 3.783-8.387 3.953-11.118.39zm-57.475-54.083 23.661-17.869c1.292.527 2.61.95 3.869 1.354.074.024.151.048.229.074-.062.067-.124.133-.184.197-2.571 2.766-5.486 5.901-6.089 10.159-.615 4.342 1.321 8.211 3.046 11.628-4 .179-8.406.501-11.73 3.049-3.401 2.596-4.724 6.637-5.891 10.205-.036.11-.073.225-.112.343-.085-.078-.167-.153-.245-.226-2.769-2.556-5.907-5.454-10.178-6.036-3.916-.533-8.292 1.395-11.63 3.081-.053-1.331-.113-2.721-.279-4.115zm65.939-69.147c-17.358-14.877-25.766-30.666-29.712-40.907l47.815-10.892c-2.63 11.219 7.234 15.268 16.411 14.898 2.595-1.001 4.01-.152 4.246 2.545 3.703 8.824 11.61 16.079 21.028 8.502l9.915 42.192c.274 1.166.217 2.352-.137 3.456-3.742-.607-7.56-1.008-11.439-1.192-4.567-13.538-11.379-26.369-20.313-38.028-2.516-3.282-7.212-3.911-10.501-1.402-.001.001-24.485 18.668-27.313 20.828zm83.332-66.657c.989 1.06 2.053 2.028 3.067 2.952.057.051.114.104.174.158-.086.036-.171.071-.252.105-3.487 1.45-7.44 3.094-9.756 6.715-2.365 3.698-2.208 8.024-2.059 11.85-3.533-1.423-7.534-3.029-11.778-2.127-.01.002-.019.004-.029.006-.029.006-.058.012-.087.019-.019.004-.037.009-.055.013-.009.002-.017.004-.026.006-.006.001-.012.003-.018.005-4.144.965-7.013 4.079-9.546 6.829-.079.086-.162.177-.248.27-.044-.104-.087-.206-.128-.303-1.458-3.475-3.11-7.414-6.758-9.714-3.693-2.331-8.023-2.172-11.853-2.017.503-1.232 1.026-2.519 1.453-3.855zm26.384 102.928c-2.761-2.004-5.65-3.854-8.651-5.544 15.038-8.191 34.72-22.576 47.947-47.674 15.003-28.704 15.564-53.839 14.124-67.888l9.36-2.132c8.139 50.01-17.331 100.263-62.78 123.238zm38.675-117.748c3.541 36.433-18.101 80.682-53.801 98.664-3.668 2.024-9.38-.09-10.286-4.281l-9.86-41.96c11.194 2.702 15.415-7.136 15.054-16.35-.98-2.575-.119-3.971 2.583-4.188 4.178-1.737 10.491-4.363 11.652-10.949.72-4.084-.934-7.401-3.094-10.058zm-12.925 147.681c-3.65-7.137-8.274-13.63-13.702-19.368 2.385-1.345 4.717-2.759 6.994-4.238 2.7.307 5.386.509 8.053.61 9.951 2.938 17.834 10.875 22.393 16.49-5.715 3.007-14.599 6.67-23.738 6.506zm-179.924-103.752c4.101 11.348 13.144 29.59 32.293 46.825l-10.9 8.312c-15.591-14.351-26.803-32.311-32.81-52.536zm-27.259 59.51c11.821-2.539 25.639-2.308 35.445 5.699l-19.772 15.077c-7.964-5.562-12.964-14.545-15.673-20.776zm-84.19 115.792 9.282-7.078c8.571 8.836 19.417 16.526 31.744 22.46 8.42 4.053 15.221-9.32 6.506-13.516-10.145-4.884-19.081-11.071-26.223-18.115l39.001-29.741c.649 3.242 2.099 6.499 5.534 8.502 5.628 3.281 11.38.377 15.58-1.743 1.948-1.988 3.59-1.801 4.925.558 7.218 6.663 17.423 9.447 22.661-.983 2.083 2.646 27.504 35.658 28.276 36.747.074 4.082-2.126 7.363-6.195 9.195-15.978 5.294-29.288 7.353-41.842 6.472-9.681-.677-10.717 14.287-1.047 14.964 16.252 1.136 32.604-2.197 47.956-7.313 7.608-2.542 13.693-9.669 15.483-17.393 7.169.345 14.692-3.24 18.962-8.989 9.806-13.205 21.807-34.778 23.291-62.563 1.727-32.334-8.201-55.433-15.347-67.618l7.632-5.82c33.921 50.569 21.983 121.187-26.352 158.093-48.407 36.957-119.784 29.78-159.827-16.119zm88.701 55.154c17.792 0 35.668-3.558 52.474-10.827 7.712 5.619 16.236 9.949 25.256 12.948-58.329 22.595-102.217 23.634-116.32 16.13-4.771-2.54-9.249-9.126-5.75-25.817 14.251 5.012 29.265 7.566 44.34 7.566zm253.94-49.416c-84.668 84.713-219.587 150.552-292.917 124.414-4.967-2.971-5.783-3.46-6.602-12.111l-.041-31.385c37.336 16.275 101.233-3.055 150.39-24.468 41.922 1.743 83.711-22.9 100.061-61.974 37.797-30.815 70.38-66.589 96.865-106.355 5.375-8.072-7.108-16.385-12.484-8.315-21.848 32.804-47.99 62.81-77.895 89.441 1.107-10.724.175-21.485-2.809-31.802 17.927-1.856 32.458-12.469 33.172-12.998 3.082-2.284 3.943-6.526 1.996-9.832-.353-.6-5.43-9.081-14.332-17.026 34.89-7.349 62.981-32.465 70.72-66.51 1.117-4.916 1.776-9.883 1.986-14.855 9.955-1.894 19.532-4.895 28.589-8.878-5.116 11.103-10.854 22.318-17.157 33.521-4.541 8.074 8.002 16.369 13.074 7.354 9.963-17.713 18.573-35.477 25.607-52.838 1.481-1.059 2.963-2.118 4.444-3.177-.949 84.399-43.667 149.552-102.667 207.794zm105.61-230.011c-18.819 13.946-34.493 26.126-58.246 31.085-.485-3.434-1.183-6.846-2.093-10.221 12.616-3.162 24.287-8.312 34.789-15.364 26.909-18.067 39.418-39.888 44.869-52.917l9.24 2.59c-6.024 17.187-15.903 32.444-28.559 44.827z"/></g></svg>